<?xml version="1.0" encoding="utf-8"?>
<!-- Generator: Adobe Illustrator 19.2.1, SVG Export Plug-In . SVG Version: 6.00 Build 0)  -->
<svg version="1.1" id="Layer_1" xmlns="http://www.w3.org/2000/svg" xmlns:xlink="http://www.w3.org/1999/xlink" x="0px" y="0px"
	 width="27px" height="28px" viewBox="0 0 27 28" enable-background="new 0 0 27 28" xml:space="preserve">
<g>
	<path fill="#454545" d="M5,13.6c1.1,0,2-0.9,2-2s-0.9-2-2-2s-2,0.9-2,2S3.9,13.6,5,13.6z M5,10.7c0.5,0,0.8,0.4,0.8,0.8
		S5.5,12.4,5,12.4S4.2,12,4.2,11.6S4.5,10.7,5,10.7z"/>
	<path fill="#454545" d="M22,13.6c1.1,0,2-0.9,2-2s-0.9-2-2-2c-1.1,0-2,0.9-2,2S20.9,13.6,22,13.6z M22,10.7c0.5,0,0.8,0.4,0.8,0.8
		s-0.4,0.8-0.8,0.8c-0.5,0-0.8-0.4-0.8-0.8S21.6,10.7,22,10.7z"/>
	<path fill="#454545" d="M13.6,23.5c-1.1,0-2,0.9-2,2c0,1.1,0.9,2,2,2s2-0.9,2-2C15.6,24.4,14.7,23.5,13.6,23.5z M13.6,26.3
		c-0.5,0-0.8-0.4-0.8-0.8s0.4-0.8,0.8-0.8c0.5,0,0.8,0.4,0.8,0.8S14.1,26.3,13.6,26.3z"/>
	<path fill="#454545" d="M23.8,19.7c-0.7,0-1.4,0.2-1.9,0.6L14,14.8V6.7c1.5-0.3,2.6-1.6,2.6-3.2c0-1.8-1.4-3.2-3.2-3.2
		c-1.8,0-3.2,1.4-3.2,3.2c0,1.6,1.1,2.9,2.6,3.2v8.2L5,20.2c-0.5-0.3-1.1-0.5-1.8-0.5c-1.8,0-3.2,1.4-3.2,3.2c0,1.8,1.4,3.2,3.2,3.2
		c1.8,0,3.2-1.4,3.2-3.2c0-0.7-0.2-1.3-0.6-1.9l7.5-5.2l7.7,5.3c-0.3,0.5-0.5,1.1-0.5,1.7c0,1.8,1.4,3.2,3.2,3.2
		c1.8,0,3.2-1.4,3.2-3.2C27,21.1,25.6,19.7,23.8,19.7z M11.4,3.5c0-1.1,0.9-2.1,2.1-2.1c1.1,0,2.1,0.9,2.1,2.1s-0.9,2.1-2.1,2.1
		C12.3,5.6,11.4,4.7,11.4,3.5z M3.3,24.9c-1.1,0-2.1-0.9-2.1-2.1c0-1.1,0.9-2.1,2.1-2.1c1.1,0,2.1,0.9,2.1,2.1
		C5.3,24,4.4,24.9,3.3,24.9z M23.8,24.9c-1.1,0-2.1-0.9-2.1-2.1c0-1.1,0.9-2.1,2.1-2.1c1.1,0,2.1,0.9,2.1,2.1
		C25.9,24,25,24.9,23.8,24.9z"/>
</g>
</svg>
