<?xml version="1.0" encoding="utf-8"?>
<!-- Generator: Adobe Illustrator 19.2.1, SVG Export Plug-In . SVG Version: 6.00 Build 0)  -->
<svg version="1.1" id="Layer_1" xmlns="http://www.w3.org/2000/svg" xmlns:xlink="http://www.w3.org/1999/xlink" x="0px" y="0px"
	 width="229px" height="230px" viewBox="0 0 229 230" enable-background="new 0 0 229 230" xml:space="preserve">
<g>
	<path fill="#454545" d="M42.6,112.2c9.3,0,16.9-7.6,16.9-16.9s-7.6-16.9-16.9-16.9s-16.9,7.6-16.9,16.9S33.3,112.2,42.6,112.2z
		 M42.6,88.2c4,0,7.2,3.2,7.2,7.2s-3.2,7.2-7.2,7.2s-7.2-3.2-7.2-7.2S38.7,88.2,42.6,88.2z"/>
	<path fill="#454545" d="M186.5,112.2c9.3,0,16.9-7.6,16.9-16.9s-7.6-16.9-16.9-16.9c-9.3,0-16.9,7.6-16.9,16.9
		S177.2,112.2,186.5,112.2z M186.5,88.2c4,0,7.2,3.2,7.2,7.2s-3.2,7.2-7.2,7.2s-7.2-3.2-7.2-7.2S182.5,88.2,186.5,88.2z"/>
	<path fill="#454545" d="M115.2,196c-9.3,0-16.9,7.6-16.9,16.9s7.6,16.9,16.9,16.9s16.9-7.6,16.9-16.9S124.5,196,115.2,196z
		 M115.2,220.1c-4,0-7.2-3.2-7.2-7.2c0-4,3.2-7.2,7.2-7.2s7.2,3.2,7.2,7.2C122.3,216.9,119.1,220.1,115.2,220.1z"/>
	<path fill="#454545" d="M201.6,163.9c-6,0-11.6,2-16.1,5.3l-67-46.2V54c12.6-2.3,22.3-13.4,22.3-26.7c0-15-12.2-27.1-27.1-27.1
		c-15,0-27.1,12.2-27.1,27.1c0,13.3,9.6,24.4,22.3,26.7v69l-65.9,45.5c-4.3-2.9-9.5-4.5-15-4.5c-15,0-27.1,12.2-27.1,27.1
		s12.2,27.1,27.1,27.1c15,0,27.1-12.2,27.1-27.1c0-5.8-1.9-11.3-5-15.7l63.6-43.9l65.1,44.9c-2.7,4.2-4.3,9.3-4.3,14.7
		c0,15,12.2,27.1,27.1,27.1s27.1-12.2,27.1-27.1C228.7,176.1,216.6,163.9,201.6,163.9z M96.2,27.3c0-9.6,7.8-17.4,17.4-17.4
		c9.6,0,17.4,7.8,17.4,17.4s-7.8,17.4-17.4,17.4C104.1,44.8,96.2,36.9,96.2,27.3z M27.9,208.5c-9.6,0-17.4-7.8-17.4-17.4
		s7.8-17.4,17.4-17.4c9.6,0,17.4,7.8,17.4,17.4S37.5,208.5,27.9,208.5z M201.6,208.5c-9.6,0-17.4-7.8-17.4-17.4s7.8-17.4,17.4-17.4
		c9.6,0,17.4,7.8,17.4,17.4S211.2,208.5,201.6,208.5z"/>
</g>
</svg>
