<?xml version="1.0" encoding="UTF-8" standalone="no"?>
<!-- Generator: Adobe Illustrator 19.0.0, SVG Export Plug-In . SVG Version: 6.00 Build 0)  -->

<svg
   xmlns:dc="http://purl.org/dc/elements/1.1/"
   xmlns:cc="http://creativecommons.org/ns#"
   xmlns:rdf="http://www.w3.org/1999/02/22-rdf-syntax-ns#"
   xmlns:svg="http://www.w3.org/2000/svg"
   xmlns="http://www.w3.org/2000/svg"
   xmlns:sodipodi="http://sodipodi.sourceforge.net/DTD/sodipodi-0.dtd"
   xmlns:inkscape="http://www.inkscape.org/namespaces/inkscape"
   version="1.1"
   id="Capa_1"
   x="0px"
   y="0px"
   viewBox="0 0 489.95 489.95"
   style="enable-background:new 0 0 489.95 489.95;"
   xml:space="preserve"
   inkscape:version="0.48.2 r9819"
   width="100%"
   height="100%"
   sodipodi:docname="import.svg"><metadata
   id="metadata3073"><rdf:RDF><cc:Work
       rdf:about=""><dc:format>image/svg+xml</dc:format><dc:type
         rdf:resource="http://purl.org/dc/dcmitype/StillImage" /><dc:title></dc:title></cc:Work></rdf:RDF></metadata><defs
   id="defs3071" /><sodipodi:namedview
   pagecolor="#ffffff"
   bordercolor="#666666"
   borderopacity="1"
   objecttolerance="10"
   gridtolerance="10"
   guidetolerance="10"
   inkscape:pageopacity="0"
   inkscape:pageshadow="2"
   inkscape:window-width="1137"
   inkscape:window-height="727"
   id="namedview3069"
   showgrid="false"
   inkscape:zoom="0.4816818"
   inkscape:cx="244.975"
   inkscape:cy="244.975"
   inkscape:window-x="2370"
   inkscape:window-y="71"
   inkscape:window-maximized="0"
   inkscape:current-layer="Capa_1" />
<g
   id="g3031"
   transform="matrix(-1,0,0,-1,489.95,489.95)">
	<g
   id="g3033">
		<path
   d="m 431.175,427.85 v -200.5 c 0,-34.2 -27.9,-62.1 -62.1,-62.1 h -40.2 c -6.8,0 -12.3,5.5 -12.3,12.3 0,6.8 5.5,12.3 12.3,12.3 h 40.2 c 20.7,0 37.6,16.9 37.6,37.6 v 200.6 c 0,20.7 -16.9,37.6 -37.6,37.6 h -248.2 c -20.7,0 -37.6,-16.9 -37.6,-37.6 v -200.7 c 0,-20.7 16.9,-37.6 37.6,-37.6 h 40.2 c 6.8,0 12.3,-5.5 12.3,-12.3 0,-6.8 -5.5,-12.3 -12.3,-12.3 h -40.2 c -34.2,0 -62.1,27.9 -62.1,62.1 v 200.6 c 0,34.2 27.9,62.1 62.1,62.1 h 248.2 c 34.3,0 62.1,-27.8 62.1,-62.1 z"
   id="path3035"
   inkscape:connector-curvature="0" />
		<path
   d="m 152.475,104.55 c 4.8,4.8 12.5,4.8 17.3,0 l 63,-63 v 229.8 c 0,6.8 5.5,12.3 12.3,12.3 6.8,0 12.3,-5.5 12.3,-12.3 V 41.65 l 63,63 c 2.4,2.4 5.5,3.6 8.7,3.6 3.2,0 6.3,-1.2 8.7,-3.6 4.8,-4.8 4.8,-12.5 0,-17.3 l -83.9,-83.9 c -4.6,-4.6 -12.7,-4.6 -17.3,0 l -83.9,83.9 c -5,4.7 -5,12.4 -0.2,17.2 z"
   id="path3037"
   inkscape:connector-curvature="0" />
	</g>
</g>
<g
   id="g3039"
   transform="matrix(-1,0,0,-1,-2.207031e-6,979.89998)">
</g>
<g
   id="g3041"
   transform="matrix(-1,0,0,-1,-2.207031e-6,979.89998)">
</g>
<g
   id="g3043"
   transform="matrix(-1,0,0,-1,-2.207031e-6,979.89998)">
</g>
<g
   id="g3045"
   transform="matrix(-1,0,0,-1,-2.207031e-6,979.89998)">
</g>
<g
   id="g3047"
   transform="matrix(-1,0,0,-1,-2.207031e-6,979.89998)">
</g>
<g
   id="g3049"
   transform="matrix(-1,0,0,-1,-2.207031e-6,979.89998)">
</g>
<g
   id="g3051"
   transform="matrix(-1,0,0,-1,-2.207031e-6,979.89998)">
</g>
<g
   id="g3053"
   transform="matrix(-1,0,0,-1,-2.207031e-6,979.89998)">
</g>
<g
   id="g3055"
   transform="matrix(-1,0,0,-1,-2.207031e-6,979.89998)">
</g>
<g
   id="g3057"
   transform="matrix(-1,0,0,-1,-2.207031e-6,979.89998)">
</g>
<g
   id="g3059"
   transform="matrix(-1,0,0,-1,-2.207031e-6,979.89998)">
</g>
<g
   id="g3061"
   transform="matrix(-1,0,0,-1,-2.207031e-6,979.89998)">
</g>
<g
   id="g3063"
   transform="matrix(-1,0,0,-1,-2.207031e-6,979.89998)">
</g>
<g
   id="g3065"
   transform="matrix(-1,0,0,-1,-2.207031e-6,979.89998)">
</g>
<g
   id="g3067"
   transform="matrix(-1,0,0,-1,-2.207031e-6,979.89998)">
</g>
</svg>