<?xml version="1.0" encoding="utf-8"?>
<!-- Generator: Adobe Illustrator 19.2.1, SVG Export Plug-In . SVG Version: 6.00 Build 0)  -->
<svg version="1.1" id="Layer_1" xmlns="http://www.w3.org/2000/svg" xmlns:xlink="http://www.w3.org/1999/xlink" x="0px" y="0px"
	 width="18px" height="18px" viewBox="0 0 18 18" enable-background="new 0 0 18 18" xml:space="preserve">
<g>
	<path fill="#454546" d="M9.3,4.5c-0.1,0-0.3,0-0.4,0l0,4.2c0.1,0,0.3,0,0.4,0L9.3,4.5z"/>
	<path fill="#454546" d="M8.2,0.6C7.4,1.1,7.1,2.1,7.6,3s1.5,1.1,2.4,0.6C10.8,3.1,11,2,10.6,1.2C10.1,0.4,9,0.1,8.2,0.6z M9.7,3.2
		C9.1,3.5,8.3,3.3,8,2.7C7.6,2.1,7.8,1.4,8.4,1C9,0.7,9.8,0.9,10.1,1.4C10.5,2,10.3,2.8,9.7,3.2z"/>
	<path fill="#454546" d="M10.8,12.1c-0.1,0.1-0.1,0.2-0.2,0.3l3.6,2.3c0.1-0.1,0.1-0.2,0.2-0.3L10.8,12.1z"/>
	<path fill="#454546" d="M17.8,15.2c-0.4-0.9-1.5-1.2-2.3-0.8c-0.9,0.4-1.2,1.5-0.8,2.3c0.4,0.9,1.5,1.2,2.3,0.8
		C17.9,17.1,18.2,16,17.8,15.2z M17.4,15.4c0.3,0.6,0,1.4-0.6,1.7c-0.6,0.3-1.4,0-1.7-0.6c-0.3-0.6,0-1.4,0.6-1.7
		C16.3,14.5,17.1,14.8,17.4,15.4z"/>
	<path fill="#454546" d="M3.6,14.4c0.1,0.1,0.1,0.2,0.2,0.3l3.6-2.3c-0.1-0.1-0.1-0.2-0.2-0.3L3.6,14.4z"/>
	<path fill="#454546" d="M1,17.5c0.9,0.4,1.9,0.1,2.3-0.8c0.4-0.9,0.1-1.9-0.8-2.3c-0.9-0.4-1.9-0.1-2.3,0.8
		C-0.2,16,0.1,17.1,1,17.5z M2.3,14.8c0.6,0.3,0.9,1,0.6,1.7s-1,0.9-1.7,0.6c-0.6-0.3-0.9-1-0.6-1.7C0.9,14.8,1.7,14.5,2.3,14.8z"/>
	<path fill="#454546" d="M10.6,10.3c0-0.1-0.1-0.2-0.2-0.3c-0.1-0.1-0.1-0.2-0.2-0.3C10.1,9.6,10,9.5,9.9,9.4c0,0,0,0-0.1,0
		C9.6,9.3,9.3,9.2,9,9.2c-0.7,0-1.3,0.4-1.6,1.1c-0.1,0.2-0.1,0.4-0.1,0.7c0,0.2,0,0.4,0.1,0.6c0,0.1,0,0.1,0.1,0.2
		c0,0.1,0.1,0.1,0.1,0.1c0,0,0.1,0.1,0.1,0.1c0.1,0.1,0.1,0.1,0.2,0.2c0,0,0,0,0.1,0.1c0,0,0.1,0.1,0.1,0.1c0,0,0.1,0,0.1,0.1
		c0,0,0.1,0,0.1,0.1c0,0,0,0,0.1,0c0.2,0.1,0.5,0.2,0.8,0.2h0l0,0c0.2,0,0.5,0,0.7-0.1c0,0,0.1,0,0.1,0c0.2-0.1,0.3-0.2,0.4-0.3
		c0,0,0,0,0.1-0.1c0.1-0.1,0.2-0.2,0.3-0.3c0,0,0.1-0.1,0.1-0.1c0-0.1,0-0.1,0.1-0.2c0.1-0.2,0.1-0.4,0.1-0.6
		C10.7,10.7,10.7,10.5,10.6,10.3z"/>
</g>
</svg>
