<?xml version="1.0" encoding="utf-8"?>
<!-- Generator: Adobe Illustrator 19.2.1, SVG Export Plug-In . SVG Version: 6.00 Build 0)  -->
<svg version="1.1" id="Layer_1" xmlns="http://www.w3.org/2000/svg" xmlns:xlink="http://www.w3.org/1999/xlink" x="0px" y="0px"
	 width="18px" height="18px" viewBox="0 0 18 18" enable-background="new 0 0 18 18" xml:space="preserve">
<g>
	<g>
		<path fill="#454546" d="M9,12.3c2.1,0,3.9-0.7,4.5-1.7c-0.3-1-0.7-2.1-0.7-2.1c-0.1-0.2-0.3-0.4-0.5-0.5l-1.4-0.7l-0.7-0.6
			L9.1,7.8l0.5,3.4c0,0,0,0,0,0L9,12c0,0,0,0,0,0c0,0,0,0,0,0l-0.5-0.7c0,0,0,0,0,0l0.5-3.4L7.8,6.6L7.1,7.3L5.7,8
			C5.5,8.1,5.2,8.3,5.2,8.4c0,0-0.4,1.1-0.7,2.1C5.1,11.5,6.9,12.3,9,12.3z"/>
		<path fill="#454546" d="M9,6.6c1.5,0,2.6-1.5,2.6-3.9C11.6,1,10.8,0,9,0S6.4,1,6.4,2.7C6.4,5.2,7.5,6.6,9,6.6z"/>
		<path fill="#454546" d="M16.6,9.8c-0.6,0-1.1,0.4-1.3,1h-1.2L14.1,11c-0.8,1.1-2.8,1.9-5.1,1.9c-2.3,0-4.3-0.8-5.1-1.9l-0.1-0.2
			H2.6c-0.2-0.6-0.7-1-1.3-1C0.6,9.8,0,10.5,0,11.3c0,0.8,0.6,1.4,1.4,1.4c0.6,0,1.1-0.4,1.3-1h0.8c1,1.2,2.9,2,5.2,2.1v1.4
			c-0.5,0.2-0.9,0.7-0.9,1.4C7.6,17.4,8.3,18,9,18s1.4-0.6,1.4-1.4c0-0.6-0.4-1.2-0.9-1.4v-1.4c2.3-0.1,4.2-0.9,5.2-2.1h0.8
			c0.2,0.6,0.7,1,1.3,1c0.7,0,1.4-0.6,1.4-1.4C18,10.5,17.4,9.8,16.6,9.8z M1.4,11.8c-0.3,0-0.5-0.3-0.5-0.6c0-0.3,0.2-0.6,0.5-0.6
			c0.3,0,0.5,0.3,0.5,0.6C1.9,11.6,1.6,11.8,1.4,11.8z M9.5,16.6c0,0.3-0.2,0.6-0.5,0.6c-0.3,0-0.5-0.3-0.5-0.6
			C8.5,16.2,8.7,16,9,16S9.5,16.2,9.5,16.6z M16.6,11.8c-0.3,0-0.5-0.3-0.5-0.6c0-0.3,0.2-0.6,0.5-0.6c0.3,0,0.5,0.3,0.5,0.6
			C17.2,11.6,16.9,11.8,16.6,11.8z"/>
	</g>
</g>
</svg>
