<?xml version="1.0" encoding="utf-8"?>
<!-- Generator: Adobe Illustrator 19.2.1, SVG Export Plug-In . SVG Version: 6.00 Build 0)  -->
<svg version="1.1" id="Layer_1" xmlns="http://www.w3.org/2000/svg" xmlns:xlink="http://www.w3.org/1999/xlink" x="0px" y="0px"
	 width="16px" height="16px" viewBox="0 0 16 16" enable-background="new 0 0 16 16" xml:space="preserve">
<path fill="#454546" d="M5.3,6h2.1v2H5.3V6z M8.5,6h2.1v2H8.5V6z M11.7,6h2.1v2h-2.1V6z M2.1,12h2.1v2H2.1V12z M5.3,12h2.1v2H5.3V12
	z M8.5,12h2.1v2H8.5V12z M5.3,9h2.1v2H5.3V9z M8.5,9h2.1v2H8.5V9z M11.7,9h2.1v2h-2.1V9z M2.1,9h2.1v2H2.1V9z M13.9,0v1h-2.1V0H4.3
	v1H2.1V0H0v16h16V0H13.9z M14.9,15H1.1V4h13.9V15z"/>
</svg>
