<?xml version="1.0" encoding="utf-8"?>
<!-- Generator: Adobe Illustrator 19.2.1, SVG Export Plug-In . SVG Version: 6.00 Build 0)  -->
<svg version="1.1" id="Layer_1" xmlns="http://www.w3.org/2000/svg" xmlns:xlink="http://www.w3.org/1999/xlink" x="0px" y="0px"
	 width="22px" height="20px" viewBox="0 0 22 20" enable-background="new 0 0 22 20" xml:space="preserve">
<g>
	<g>
		<path fill="#464647" d="M17.8,9.6c-0.1-0.4-0.4-0.7-0.9-0.7h-7L8.6,7.4C8.4,7.1,8,6.9,7.5,6.9H3C2.7,6.9,2.4,7,2.2,7.3
			C1.9,7.5,1.9,7.9,1.9,8.2L2,8.9H2C1.7,8.9,1.5,9,1.3,9.2C1.1,9.4,1.1,9.6,1.1,9.9L2.5,19c0.1,0.6,0.6,1,1.1,1h14.7
			c0.3,0,0.5-0.1,0.7-0.3c0.2-0.2,0.2-0.4,0.2-0.7L17.8,9.6z"/>
		<path fill="#464647" d="M14.3,2.8H8.8c-0.4,0-0.7,0.3-0.7,0.7s0.3,0.7,0.7,0.7h5.5c0.4,0,0.7-0.3,0.7-0.7S14.6,2.8,14.3,2.8z"/>
		<path fill="#464647" d="M20.7,7.8c-0.2-0.2-0.4-0.3-0.6-0.3h-1.6l0.4,3.3l0.8,5.7l1.2-8C20.9,8.3,20.9,8,20.7,7.8z"/>
		<path fill="#464647" d="M6.8,1.3h9.6v6.5h1.3v-7c0-0.5-0.4-0.8-0.8-0.8H6.3C5.8,0,5.4,0.4,5.4,0.9v5h1.4V1.3z"/>
		<path fill="#464647" d="M14.3,5.4H8.8C8.5,5.4,8.2,5.7,8.1,6C8.6,6.1,9,6.4,9.3,6.8l0.1,0.1h4.8c0.4,0,0.7-0.3,0.7-0.7
			S14.6,5.4,14.3,5.4z"/>
	</g>
</g>
</svg>
