<?xml version="1.0" encoding="utf-8"?>
<!-- Generator: Adobe Illustrator 19.2.1, SVG Export Plug-In . SVG Version: 6.00 Build 0)  -->
<svg version="1.1" id="Layer_1" xmlns="http://www.w3.org/2000/svg" xmlns:xlink="http://www.w3.org/1999/xlink" x="0px" y="0px"
	 width="22px" height="20px" viewBox="0 0 22 20" enable-background="new 0 0 22 20" xml:space="preserve">
<g>
	<path fill="#474748" d="M19.8,3.1L22,0.9V0h-0.9l-2.2,2.2L16.7,0h-0.9v0.9l2.2,2.2l-2.2,2.2v0.9h0.9l2.2-2.2l2.2,2.2H22V5.3
		L19.8,3.1z"/>
	<path fill="#474748" d="M2,15h1.3v2.5H2V15z"/>
	<path fill="#474748" d="M2,11.3h1.3v2.5H2V11.3z"/>
	<path fill="#474748" d="M18.3,8.8h1.3v2.5h-1.3V8.8z"/>
	<path fill="#474748" d="M18.3,16.3h1.3v2.5h-1.3V16.3z"/>
	<path fill="#474748" d="M18.3,12.5h1.3V15h-1.3V12.5z"/>
	<path fill="#474748" d="M2,7.5h1.3V10H2V7.5z"/>
	<path fill="#474748" d="M2,3.8h1.3v2.5H2V3.8z"/>
	<path fill="#474748" d="M12,2.5h2.5v1.3H12V2.5z"/>
	<path fill="#474748" d="M8.3,2.5h2.5v1.3H8.3V2.5z"/>
	<path fill="#474748" d="M4.5,2.5H7v1.3H4.5V2.5z"/>
	<path fill="#474748" d="M10.8,18.8h2.5V20h-2.5V18.8z"/>
	<path fill="#474748" d="M14.5,18.8H17V20h-2.5V18.8z"/>
	<path fill="#474748" d="M7,18.8h2.5V20H7V18.8z"/>
	<path fill="#474748" d="M3.3,18.8h2.5V20H3.3V18.8z"/>
	<path fill="#474748" d="M8.2,9.3H6.1c-0.2,0-0.4,0.2-0.4,0.3v6.2c0,0.2,0.2,0.3,0.4,0.3h2.1c0.2,0,0.4-0.2,0.4-0.3V9.7
		C8.6,9.5,8.4,9.3,8.2,9.3z M8.2,15.6H6.1v-2.8h2.1V15.6z M11.8,8H9.7C9.5,8,9.3,8.1,9.3,8.3v7.6c0,0.2,0.2,0.3,0.4,0.3h2.1
		c0.2,0,0.4-0.2,0.4-0.3V8.3C12.2,8.1,12,8,11.8,8z M11.8,15.6H9.7v-3.5h2.1V15.6z M15.4,6.6h-2.1c-0.2,0-0.4,0.2-0.4,0.3v9
		c0,0.2,0.2,0.3,0.4,0.3h2.1c0.2,0,0.4-0.2,0.4-0.3v-9C15.8,6.7,15.6,6.6,15.4,6.6z M15.4,15.6h-2.1v-4.1h2.1V15.6z"/>
</g>
</svg>
