<?xml version="1.0" encoding="utf-8"?>
<!-- Generator: Adobe Illustrator 19.2.1, SVG Export Plug-In . SVG Version: 6.00 Build 0)  -->
<svg version="1.1" id="Layer_1" xmlns="http://www.w3.org/2000/svg" xmlns:xlink="http://www.w3.org/1999/xlink" x="0px" y="0px"
	 width="22px" height="20px" viewBox="0 0 22 20" enable-background="new 0 0 22 20" xml:space="preserve">
<g>
	<path fill="#464647" d="M18.4,3.2C16.5,1.3,13.9,0,11,0C5.5,0,1,4.5,1,10h1.9c0-4.5,3.6-8.1,8.1-8.1c2.4,0,4.6,1,6,2.7l-2.9,2.9H21
		V0.6L18.4,3.2z"/>
	<path fill="#464647" d="M19.1,10c0,4.5-3.6,8.1-8.1,8.1c-2.4,0-4.6-1-6-2.7l2.9-2.9H1v6.9l2.6-2.6c1.8,2,4.5,3.2,7.4,3.2
		c5.5,0,10-4.5,10-10H19.1z"/>
</g>
</svg>
