<?xml version="1.0" encoding="utf-8"?>
<!-- Generator: Adobe Illustrator 19.2.1, SVG Export Plug-In . SVG Version: 6.00 Build 0)  -->
<svg version="1.1" id="Layer_1" xmlns="http://www.w3.org/2000/svg" xmlns:xlink="http://www.w3.org/1999/xlink" x="0px" y="0px"
	 width="22px" height="20px" viewBox="0 0 22 20" enable-background="new 0 0 22 20" xml:space="preserve">
<g>
	<path fill="#454546" d="M18.9,4.5c-0.4-0.6-1-1.3-1.7-1.9c-0.7-0.7-1.4-1.3-1.9-1.7c-1-0.7-1.5-0.8-1.8-0.8H3.8
		C3,0,2.3,0.7,2.3,1.6v16.9C2.3,19.3,3,20,3.8,20h14.4c0.9,0,1.6-0.7,1.6-1.6V6.3C19.8,6,19.7,5.5,18.9,4.5L18.9,4.5z M16.3,3.4
		C16.9,4,17.4,4.6,17.8,5h-3V2C15.2,2.3,15.7,2.8,16.3,3.4L16.3,3.4L16.3,3.4z M18.5,18.4c0,0.2-0.1,0.3-0.3,0.3H3.8
		c-0.2,0-0.3-0.1-0.3-0.3V1.6c0-0.2,0.1-0.3,0.3-0.3c0,0,9.7,0,9.7,0v4.4c0,0.3,0.3,0.6,0.6,0.6h4.4V18.4z"/>
	<path fill="#454546" d="M16.1,15.6l-2.6-2.2C13.3,13.1,13,13,12.7,13c0.6-0.7,1-1.6,1-2.6c0-2.2-1.8-4.1-4.1-4.1s-4.1,1.8-4.1,4.1
		s1.8,4.1,4.1,4.1c1,0,1.9-0.4,2.6-1c0,0.2,0.1,0.5,0.3,0.8l2.2,2.6c0.4,0.4,1,0.5,1.4,0.1S16.5,15.9,16.1,15.6L16.1,15.6z
		 M9.6,13.1c-1.5,0-2.7-1.2-2.7-2.7s1.2-2.7,2.7-2.7s2.7,1.2,2.7,2.7S11.1,13.1,9.6,13.1z"/>
</g>
</svg>
