<?xml version="1.0" encoding="utf-8"?>
<!-- Generator: Adobe Illustrator 19.2.1, SVG Export Plug-In . SVG Version: 6.00 Build 0)  -->
<svg version="1.1" id="Layer_1" xmlns="http://www.w3.org/2000/svg" xmlns:xlink="http://www.w3.org/1999/xlink" x="0px" y="0px"
	 width="22px" height="20px" viewBox="0 0 22 20" enable-background="new 0 0 22 20" xml:space="preserve">
<path fill="#474748" d="M6,5.7H1.7C1.3,5.7,1,6,1,6.4v12.9C1,19.7,1.3,20,1.7,20H6c0.4,0,0.7-0.3,0.7-0.7V6.4C6.7,6,6.4,5.7,6,5.7z
	 M6,18.6H1.7v-5.7H6V18.6z M13.1,2.9H8.9c-0.4,0-0.7,0.3-0.7,0.7v15.7c0,0.4,0.3,0.7,0.7,0.7h4.3c0.4,0,0.7-0.3,0.7-0.7V3.6
	C13.9,3.2,13.5,2.9,13.1,2.9z M13.1,18.6H8.9v-7.1h4.3V18.6z M20.3,0H16c-0.4,0-0.7,0.3-0.7,0.7v18.6c0,0.4,0.3,0.7,0.7,0.7h4.3
	c0.4,0,0.7-0.3,0.7-0.7V0.7C21,0.3,20.7,0,20.3,0z M20.3,18.6H16V10h4.3V18.6z"/>
</svg>
