<?xml version="1.0" encoding="utf-8"?>
<!-- Generator: Adobe Illustrator 19.2.1, SVG Export Plug-In . SVG Version: 6.00 Build 0)  -->
<svg version="1.1" id="Layer_1" xmlns="http://www.w3.org/2000/svg" xmlns:xlink="http://www.w3.org/1999/xlink" x="0px" y="0px"
	 width="16px" height="14px" viewBox="0 0 16 14" enable-background="new 0 0 16 14" xml:space="preserve">
<g>
	<path fill="#464647" d="M13,9.3v-7h-1.2v7h-3l3.6,3.5L16,9.3H13z"/>
	<path fill="#464647" d="M4.7,1.2v3.5H1.2V1.2H4.7z M5.9,0H0v5.8h5.9V0z"/>
	<path fill="#464647" d="M0,8.2h1.8v1.2H0V8.2z"/>
	<path fill="#464647" d="M2.4,8.2h1.8v1.2H2.4V8.2z"/>
	<path fill="#464647" d="M4.7,8.2h1.2v1.8H4.7V8.2z"/>
	<path fill="#464647" d="M0,12.3h1.2V14H0V12.3z"/>
	<path fill="#464647" d="M1.8,12.8h1.8V14H1.8V12.8z"/>
	<path fill="#464647" d="M4.1,12.8h1.8V14H4.1V12.8z"/>
	<path fill="#464647" d="M0,9.9h1.2v1.8H0V9.9z"/>
	<path fill="#464647" d="M4.7,10.5h1.2v1.8H4.7V10.5z"/>
</g>
</svg>
