<?xml version="1.0" encoding="utf-8"?>
<!-- Generator: Adobe Illustrator 19.2.1, SVG Export Plug-In . SVG Version: 6.00 Build 0)  -->
<svg version="1.1" id="Layer_1" xmlns="http://www.w3.org/2000/svg" xmlns:xlink="http://www.w3.org/1999/xlink" x="0px" y="0px"
	 width="22px" height="20px" viewBox="0 0 22 20" enable-background="new 0 0 22 20" xml:space="preserve">
<g>
	<path fill="#474748" d="M20.8,8c-0.1-0.2-0.3-0.4-0.5-0.4c-0.2,0.1-0.4,0.3-0.4,0.5c0.7,3.5-0.7,7.1-3.5,9.2
		c-1.9,1.4-4.3,2-6.8,1.6c-2.4-0.4-4.5-1.6-6-3.6C2.2,13.4,1.6,11,2,8.6s1.6-4.5,3.6-6c1.9-1.4,4.3-2,6.8-1.6
		c2.4,0.4,4.5,1.6,5.9,3.5l-0.6-0.1c-0.2,0-0.5,0.1-0.5,0.4c0,0.2,0.1,0.5,0.4,0.5l1.7,0.3c0,0,0.1,0,0.1,0c0.1,0,0.2,0,0.3-0.1
		c0.1-0.1,0.2-0.2,0.2-0.3l0.3-1.7c0-0.2-0.1-0.5-0.4-0.5c-0.2,0-0.5,0.1-0.5,0.4l-0.1,0.6c-1.6-2.1-3.9-3.5-6.5-3.9
		C9.9-0.3,7.2,0.4,5.1,1.9c-2.1,1.6-3.5,3.9-4,6.6c-0.4,2.7,0.2,5.3,1.8,7.4c1.6,2.1,3.9,3.5,6.6,4C10,20,10.5,20,11,20
		c2.1,0,4.2-0.7,5.9-1.9C20.1,15.8,21.6,11.8,20.8,8L20.8,8z"/>
	<path fill="#474748" d="M8.3,7.8H6.1c-0.2,0-0.4,0.2-0.4,0.4v6.6c0,0.2,0.2,0.4,0.4,0.4h2.2c0.2,0,0.4-0.2,0.4-0.4V8.1
		C8.7,7.9,8.5,7.8,8.3,7.8z M8.3,14.4H6.1v-2.9h2.2V14.4z M12,6.3H9.8c-0.2,0-0.4,0.2-0.4,0.4v8.1c0,0.2,0.2,0.4,0.4,0.4H12
		c0.2,0,0.4-0.2,0.4-0.4V6.7C12.4,6.5,12.2,6.3,12,6.3z M12,14.4H9.8v-3.7H12V14.4z M15.7,4.8h-2.2c-0.2,0-0.4,0.2-0.4,0.4v9.6
		c0,0.2,0.2,0.4,0.4,0.4h2.2c0.2,0,0.4-0.2,0.4-0.4V5.2C16,5,15.9,4.8,15.7,4.8z M15.7,14.4h-2.2V10h2.2V14.4z"/>
</g>
</svg>
