<?xml version="1.0" encoding="utf-8"?>
<!-- Generator: Adobe Illustrator 19.2.1, SVG Export Plug-In . SVG Version: 6.00 Build 0)  -->
<svg version="1.1" id="Layer_1" xmlns="http://www.w3.org/2000/svg" xmlns:xlink="http://www.w3.org/1999/xlink" x="0px" y="0px"
	 width="18px" height="18px" viewBox="0 0 18 18" enable-background="new 0 0 18 18" xml:space="preserve">
<g>
	<path fill="#454546" d="M7.8,7.2C7.6,7.1,7.5,7,7.4,6.9l-2.6,4.3c0.1,0.1,0.3,0.1,0.4,0.2L7.8,7.2z"/>
	<path fill="#454546" d="M6.4,13.4c0,0.1,0,0.1,0,0.2c0,0.1,0,0.2,0,0.2h5.3c0-0.1,0-0.1,0-0.2c0-0.1,0-0.2,0-0.2H6.4z"/>
	<path fill="#454546" d="M10.2,7.2l2.6,4.3c0.1-0.1,0.3-0.2,0.4-0.2l-2.6-4.3C10.5,7,10.4,7.1,10.2,7.2z"/>
	<path fill="#454546" d="M9.7,2.8c-1-0.4-2.1,0.1-2.5,1s0.1,2.1,1,2.5c1,0.4,2.1-0.1,2.5-1S10.7,3.2,9.7,2.8z M8.5,5.8
		c-0.7-0.3-1-1.1-0.7-1.8s1.1-1,1.8-0.7c0.7,0.3,1,1.1,0.7,1.8C10,5.8,9.2,6.1,8.5,5.8z"/>
	<path fill="#454546" d="M14.8,11.7c-1-0.4-2.1,0.1-2.5,1s0.1,2.1,1,2.5c1,0.4,2.1-0.1,2.5-1C16.2,13.2,15.8,12.1,14.8,11.7z
		 M13.6,14.7c-0.7-0.3-1-1.1-0.7-1.8s1.1-1,1.8-0.7c0.7,0.3,1,1.1,0.7,1.8S14.3,15,13.6,14.7z"/>
	<path fill="#454546" d="M5.6,12.7c0-0.1-0.1-0.2-0.2-0.3c-0.1-0.1-0.1-0.2-0.2-0.3C5.1,12,5,11.9,4.8,11.8c0,0,0,0-0.1,0
		c-0.3-0.1-0.6-0.2-0.9-0.2c-0.8,0-1.5,0.5-1.7,1.2C2.1,12.9,2,13.2,2,13.4c0,0.2,0,0.4,0.1,0.6c0,0.1,0,0.1,0.1,0.2
		c0,0.1,0.1,0.1,0.1,0.2c0,0,0.1,0.1,0.1,0.1c0.1,0.1,0.1,0.2,0.2,0.2c0,0,0,0,0.1,0.1c0,0,0.1,0.1,0.1,0.1c0,0,0.1,0,0.1,0.1
		c0,0,0.1,0,0.1,0.1c0,0,0,0,0.1,0c0.3,0.1,0.6,0.2,0.9,0.2h0l0,0c0.3,0,0.5-0.1,0.7-0.1c0,0,0.1,0,0.1,0c0.2-0.1,0.3-0.2,0.5-0.3
		c0,0,0,0,0.1-0.1c0.1-0.1,0.2-0.2,0.3-0.4c0-0.1,0.1-0.1,0.1-0.2c0-0.1,0.1-0.1,0.1-0.2c0.1-0.2,0.1-0.4,0.1-0.6
		C5.8,13.2,5.7,12.9,5.6,12.7z"/>
</g>
</svg>
